<svg width="210" height="65" viewBox="0 0 210 65" fill="none" xmlns="http://www.w3.org/2000/svg">
<g filter="url(#filter0_d)">
<path d="M16.7953 15.4826C13.5 20.5 14.5 30 21 34.5" stroke="#FBD460" stroke-width="3" stroke-linecap="round" stroke-linejoin="round"/>
</g>
<g filter="url(#filter1_d)">
<path fill-rule="evenodd" clip-rule="evenodd" d="M42.4321 15.4826H48.7518C45.4741 6.71104 37.018 0.465485 27.1032 0.465485C14.3437 0.465485 4 10.8091 4 23.5687C4 36.3282 14.3437 46.6719 27.1032 46.6719C30.9917 46.6719 34.6558 45.7112 37.8711 44.0143C37.8713 44.0145 37.8715 44.0147 37.8717 44.0149L51.5233 56.0999C53.0047 57.4114 55.2689 57.2736 56.5803 55.7921C57.8918 54.3106 57.754 52.0465 56.2725 50.735L43.7184 39.6215C45.6189 37.6548 47.1735 35.3516 48.284 32.81H41.7632C38.6938 37.6689 33.2753 40.8961 27.1032 40.8961C17.5335 40.8961 9.7758 33.1383 9.7758 23.5687C9.7758 13.999 17.5335 6.24128 27.1032 6.24128C33.7524 6.24128 39.5268 9.98653 42.4321 15.4826Z" fill="#503E9D"/>
</g>
<path d="M52.548 28.064C52.548 26.048 52.956 24.284 53.772 22.772C54.588 21.236 55.704 20.048 57.12 19.208C58.56 18.368 60.156 17.948 61.908 17.948C63.636 17.948 65.136 18.32 66.408 19.064C67.68 19.808 68.628 20.744 69.252 21.872V18.272H72.564V38H69.252V34.328C68.604 35.48 67.632 36.44 66.336 37.208C65.064 37.952 63.576 38.324 61.872 38.324C60.12 38.324 58.536 37.892 57.12 37.028C55.704 36.164 54.588 34.952 53.772 33.392C52.956 31.832 52.548 30.056 52.548 28.064ZM69.252 28.1C69.252 26.612 68.952 25.316 68.352 24.212C67.752 23.108 66.936 22.268 65.904 21.692C64.896 21.092 63.78 20.792 62.556 20.792C61.332 20.792 60.216 21.08 59.208 21.656C58.2 22.232 57.396 23.072 56.796 24.176C56.196 25.28 55.896 26.576 55.896 28.064C55.896 29.576 56.196 30.896 56.796 32.024C57.396 33.128 58.2 33.98 59.208 34.58C60.216 35.156 61.332 35.444 62.556 35.444C63.78 35.444 64.896 35.156 65.904 34.58C66.936 33.98 67.752 33.128 68.352 32.024C68.952 30.896 69.252 29.588 69.252 28.1ZM81.3761 21.476C81.9521 20.348 82.7681 19.472 83.8241 18.848C84.9041 18.224 86.2121 17.912 87.7481 17.912V21.296H86.8841C83.2121 21.296 81.3761 23.288 81.3761 27.272V38H78.1001V18.272H81.3761V21.476ZM93.2218 15.068C92.5978 15.068 92.0698 14.852 91.6378 14.42C91.2058 13.988 90.9898 13.46 90.9898 12.836C90.9898 12.212 91.2058 11.684 91.6378 11.252C92.0698 10.82 92.5978 10.604 93.2218 10.604C93.8218 10.604 94.3258 10.82 94.7338 11.252C95.1658 11.684 95.3818 12.212 95.3818 12.836C95.3818 13.46 95.1658 13.988 94.7338 14.42C94.3258 14.852 93.8218 15.068 93.2218 15.068ZM94.8058 18.272V38H91.5298V18.272H94.8058ZM110.181 17.912C111.669 17.912 113.013 18.236 114.213 18.884C115.413 19.508 116.349 20.456 117.021 21.728C117.717 23 118.065 24.548 118.065 26.372V38H114.825V26.84C114.825 24.872 114.333 23.372 113.349 22.34C112.365 21.284 111.021 20.756 109.317 20.756C107.589 20.756 106.209 21.296 105.177 22.376C104.169 23.456 103.665 25.028 103.665 27.092V38H100.389V11.36H103.665V21.08C104.313 20.072 105.201 19.292 106.329 18.74C107.481 18.188 108.765 17.912 110.181 17.912ZM132.021 38.324C130.173 38.324 128.493 37.904 126.981 37.064C125.493 36.224 124.317 35.036 123.453 33.5C122.613 31.94 122.193 30.14 122.193 28.1C122.193 26.084 122.625 24.308 123.489 22.772C124.377 21.212 125.577 20.024 127.089 19.208C128.601 18.368 130.293 17.948 132.165 17.948C134.037 17.948 135.729 18.368 137.241 19.208C138.753 20.024 139.941 21.2 140.805 22.736C141.693 24.272 142.137 26.06 142.137 28.1C142.137 30.14 141.681 31.94 140.769 33.5C139.881 35.036 138.669 36.224 137.133 37.064C135.597 37.904 133.893 38.324 132.021 38.324ZM132.021 35.444C133.197 35.444 134.301 35.168 135.333 34.616C136.365 34.064 137.193 33.236 137.817 32.132C138.465 31.028 138.789 29.684 138.789 28.1C138.789 26.516 138.477 25.172 137.853 24.068C137.229 22.964 136.413 22.148 135.405 21.62C134.397 21.068 133.305 20.792 132.129 20.792C130.929 20.792 129.825 21.068 128.817 21.62C127.833 22.148 127.041 22.964 126.441 24.068C125.841 25.172 125.541 26.516 125.541 28.1C125.541 29.708 125.829 31.064 126.405 32.168C127.005 33.272 127.797 34.1 128.781 34.652C129.765 35.18 130.845 35.444 132.021 35.444ZM150.44 20.972V32.6C150.44 33.56 150.644 34.244 151.052 34.652C151.46 35.036 152.168 35.228 153.176 35.228H155.588V38H152.636C150.812 38 149.444 37.58 148.532 36.74C147.62 35.9 147.164 34.52 147.164 32.6V20.972H144.608V18.272H147.164V13.304H150.44V18.272H155.588V20.972H150.44ZM177.557 27.38C177.557 28.004 177.521 28.664 177.449 29.36H161.681C161.801 31.304 162.461 32.828 163.661 33.932C164.885 35.012 166.361 35.552 168.089 35.552C169.505 35.552 170.681 35.228 171.617 34.58C172.577 33.908 173.249 33.02 173.633 31.916H177.161C176.633 33.812 175.577 35.36 173.993 36.56C172.409 37.736 170.441 38.324 168.089 38.324C166.217 38.324 164.537 37.904 163.049 37.064C161.585 36.224 160.433 35.036 159.593 33.5C158.753 31.94 158.333 30.14 158.333 28.1C158.333 26.06 158.741 24.272 159.557 22.736C160.373 21.2 161.513 20.024 162.977 19.208C164.465 18.368 166.169 17.948 168.089 17.948C169.961 17.948 171.617 18.356 173.057 19.172C174.497 19.988 175.601 21.116 176.369 22.556C177.161 23.972 177.557 25.58 177.557 27.38ZM174.173 26.696C174.173 25.448 173.897 24.38 173.345 23.492C172.793 22.58 172.037 21.896 171.077 21.44C170.141 20.96 169.097 20.72 167.945 20.72C166.289 20.72 164.873 21.248 163.697 22.304C162.545 23.36 161.885 24.824 161.717 26.696H174.173ZM185.157 11.36V38H181.881V11.36H185.157Z" fill="black"/>
<defs>
<filter id="filter0_d" x="9.46259" y="13.9824" width="17.0375" height="30.0177" filterUnits="userSpaceOnUse" color-interpolation-filters="sRGB">
<feFlood flood-opacity="0" result="BackgroundImageFix"/>
<feColorMatrix in="SourceAlpha" type="matrix" values="0 0 0 0 0 0 0 0 0 0 0 0 0 0 0 0 0 0 127 0"/>
<feOffset dy="4"/>
<feGaussianBlur stdDeviation="2"/>
<feColorMatrix type="matrix" values="0 0 0 0 0 0 0 0 0 0 0 0 0 0 0 0 0 0 0.25 0"/>
<feBlend mode="normal" in2="BackgroundImageFix" result="effect1_dropShadow"/>
<feBlend mode="normal" in="SourceGraphic" in2="effect1_dropShadow" result="shape"/>
</filter>
<filter id="filter1_d" x="0" y="0.465485" width="61.4804" height="64.5345" filterUnits="userSpaceOnUse" color-interpolation-filters="sRGB">
<feFlood flood-opacity="0" result="BackgroundImageFix"/>
<feColorMatrix in="SourceAlpha" type="matrix" values="0 0 0 0 0 0 0 0 0 0 0 0 0 0 0 0 0 0 127 0"/>
<feOffset dy="4"/>
<feGaussianBlur stdDeviation="2"/>
<feColorMatrix type="matrix" values="0 0 0 0 0 0 0 0 0 0 0 0 0 0 0 0 0 0 0.25 0"/>
<feBlend mode="normal" in2="BackgroundImageFix" result="effect1_dropShadow"/>
<feBlend mode="normal" in="SourceGraphic" in2="effect1_dropShadow" result="shape"/>
</filter>
</defs>
</svg>
