<svg width="24" height="24" viewBox="0 0 24 24" fill="none" xmlns="http://www.w3.org/2000/svg">
<path d="M9.9977 6.20118C15.2984 6.20118 19.5955 4.94786 19.5955 3.40182C19.5955 1.85578 15.2984 0.602463 9.9977 0.602463C4.69698 0.602463 0.399902 1.85578 0.399902 3.40182C0.399902 4.94786 4.69698 6.20118 9.9977 6.20118Z" fill="#503E9D"/>
<path d="M9.9977 11.7999C15.2965 11.7999 19.5955 10.5482 19.5955 9.00054V3.40182C19.5955 4.94947 15.2965 6.20118 9.9977 6.20118C4.69892 6.20118 0.399902 4.94947 0.399902 3.40182V9.00054C0.399902 10.5482 4.69892 11.7999 9.9977 11.7999Z" fill="#503E9D"/>
<path d="M9.9977 17.3986C11.097 17.3998 12.1955 17.3437 13.2889 17.2306C13.8234 14.4096 16.5436 12.5559 19.3646 13.0904C19.4419 13.105 19.5189 13.1214 19.5955 13.1396V9.00053C19.5955 10.5482 15.2965 11.7999 9.9977 11.7999C4.69892 11.7999 0.399902 10.5482 0.399902 9.00053V14.5992C0.399902 16.1469 4.69892 17.3986 9.9977 17.3986Z" fill="#503E9D"/>
<path d="M13.197 18.1984C13.1969 17.8737 13.2277 17.5496 13.2889 17.2307C12.1955 17.3437 11.097 17.3998 9.9977 17.3986C4.69892 17.3986 0.399902 16.1469 0.399902 14.5993V20.198C0.399902 21.7456 4.69892 22.9973 9.9977 22.9973C11.8346 23.01 13.6683 22.8425 15.4724 22.4974C14.049 21.5295 13.197 19.9198 13.197 18.1984Z" fill="#503E9D"/>
<path d="M19.5955 13.1396C16.8018 12.477 13.9999 14.2046 13.3373 16.9984C12.6747 19.7921 14.4024 22.594 17.1961 23.2566C19.9898 23.9192 22.7917 22.1915 23.4543 19.3978C23.5475 19.0048 23.5946 18.6023 23.5946 18.1984C23.6096 15.7841 21.9481 13.6823 19.5955 13.1396ZM18.3958 21.7976V18.1984V21.7976Z" fill="#FBD460"/>
<path d="M19.9954 12.8369V3.40181C19.9954 1.32229 14.8442 0.202545 9.9977 0.202545C5.15121 0.202545 0 1.32229 0 3.40181V20.198C0 22.2775 5.15121 23.3972 9.9977 23.3972C11.807 23.4073 13.6133 23.2466 15.3925 22.9173C17.9971 24.5805 21.4568 23.8172 23.1199 21.2126C24.783 18.608 24.0197 15.1483 21.4151 13.4852C20.9745 13.2038 20.4966 12.9856 19.9954 12.8369ZM18.9816 12.6337C18.7871 12.6122 18.5915 12.6008 18.3958 12.5997C18.2306 12.5997 18.067 12.6073 17.9055 12.6213C17.8495 12.6265 17.7951 12.6361 17.7399 12.6429C17.6343 12.6553 17.5288 12.6665 17.4252 12.6849C17.3604 12.6961 17.2976 12.7125 17.2336 12.7249C17.1413 12.7445 17.0485 12.7629 16.9581 12.7869C16.8909 12.8045 16.8257 12.8269 16.7581 12.8472C16.6726 12.8736 16.587 12.8984 16.5034 12.9272C16.4362 12.9512 16.3706 12.9796 16.3034 13.0072C16.2235 13.0392 16.1435 13.0704 16.0671 13.1056C16.0003 13.1364 15.9359 13.1704 15.8703 13.2036C15.7964 13.2412 15.7216 13.278 15.6496 13.3187C15.5848 13.3551 15.5224 13.3947 15.4592 13.4335C15.3897 13.4767 15.3201 13.5191 15.2525 13.5647C15.1849 13.6103 15.1325 13.6519 15.0701 13.6963C15.0077 13.7406 14.9406 13.7918 14.8782 13.8422C14.8158 13.8926 14.7622 13.9398 14.7054 13.9898C14.6486 14.0398 14.5854 14.095 14.5283 14.1498C14.4711 14.2045 14.4195 14.2577 14.3663 14.3129C14.3131 14.3681 14.2571 14.4265 14.2063 14.4857C14.1555 14.5449 14.106 14.6028 14.0572 14.6628C14.0084 14.7228 13.9584 14.7852 13.9112 14.8484C13.864 14.9116 13.82 14.974 13.776 15.0383C13.732 15.1027 13.688 15.1691 13.6461 15.2383C13.6041 15.3075 13.5661 15.3715 13.5261 15.4383C13.4861 15.505 13.4489 15.5774 13.4125 15.6486C13.3761 15.7198 13.3429 15.7886 13.3101 15.8602C13.2773 15.9317 13.2445 16.0077 13.2142 16.0825C13.1838 16.1573 13.1562 16.2281 13.1298 16.3025C13.1034 16.3768 13.0762 16.4588 13.0498 16.538C13.0234 16.6172 13.0046 16.6876 12.9846 16.7632C12.9766 16.7939 12.9658 16.8235 12.9582 16.8543C12.6683 16.8819 12.3739 16.9031 12.0784 16.9223C11.9089 16.9335 11.7429 16.9495 11.5717 16.9579C11.0519 16.9835 10.5252 16.9979 9.9945 16.9979C4.29901 16.9987 0.799816 15.601 0.799816 14.5992V10.3178C0.809414 10.325 0.821011 10.3318 0.830609 10.339C0.920988 10.4054 1.01657 10.471 1.11974 10.5342C1.13614 10.5442 1.15453 10.5538 1.17133 10.5638C1.26411 10.6194 1.36169 10.6729 1.46406 10.7257L1.54844 10.7689C1.66602 10.8273 1.78839 10.8841 1.91716 10.9389L1.99714 10.9709C2.10966 11.0175 2.22589 11.063 2.34586 11.1072C2.37945 11.1196 2.41264 11.132 2.44664 11.144C2.5874 11.1944 2.73257 11.2428 2.88214 11.2892C2.91613 11.3 2.95132 11.31 2.98611 11.3204C3.11543 11.3593 3.2475 11.397 3.38242 11.4336C3.41961 11.4436 3.456 11.454 3.49319 11.4636C3.65316 11.5056 3.81792 11.5459 3.98508 11.5835L4.10745 11.6103C4.25277 11.6429 4.40044 11.6739 4.55055 11.7035L4.66133 11.7259C4.83784 11.7595 5.01699 11.7915 5.1988 11.8219L5.33717 11.8439C5.49713 11.8705 5.6583 11.8948 5.82066 11.9167L5.92424 11.9315C6.11259 11.9571 6.30375 11.9806 6.4957 12.0026L6.64487 12.019C6.82043 12.0382 6.99679 12.0562 7.17515 12.0722L7.25113 12.0794C7.44948 12.0968 7.64944 12.1121 7.85099 12.1254L8.00256 12.1354C8.19186 12.1474 8.38152 12.1578 8.57163 12.1666L8.62121 12.169C8.82492 12.1778 9.02887 12.1845 9.23307 12.189L9.38264 12.1922C9.58859 12.1962 9.79494 12.199 10.0001 12.199C10.2052 12.199 10.4116 12.1962 10.6176 12.1922L10.7671 12.189C10.9716 12.1842 11.1756 12.1776 11.379 12.169L11.4286 12.1666C11.6189 12.1578 11.8086 12.1474 11.9976 12.1354L12.1492 12.1254C12.35 12.1118 12.5499 12.0965 12.7491 12.0794L12.825 12.0722C13.0034 12.0562 13.1803 12.0385 13.3557 12.019L13.5041 12.0026C13.6964 11.9806 13.8876 11.9571 14.076 11.9315L14.1795 11.9167C14.3424 11.894 14.5036 11.8697 14.663 11.8439L14.7966 11.8227C14.9787 11.7923 15.1579 11.7603 15.3341 11.7267L15.4448 11.7043C15.595 11.6747 15.7426 11.6437 15.8879 11.6111L16.0103 11.5843C16.1775 11.5443 16.3418 11.5044 16.5022 11.4644C16.5394 11.4548 16.5758 11.4444 16.613 11.4344C16.7481 11.3978 16.8803 11.3601 17.0093 11.3212C17.0441 11.3108 17.0793 11.3008 17.1133 11.29C17.2628 11.2436 17.408 11.1952 17.5488 11.1448C17.5827 11.1328 17.6159 11.1204 17.6495 11.108C17.7695 11.0638 17.8857 11.0183 17.9983 10.9717L18.0782 10.9397C18.207 10.8849 18.3294 10.8281 18.4469 10.7697L18.5313 10.7265C18.6337 10.6737 18.7313 10.6202 18.8241 10.5646C18.8409 10.5546 18.8593 10.545 18.8757 10.535C18.9788 10.4714 19.0756 10.4062 19.1648 10.3394C19.1744 10.3326 19.186 10.3258 19.1956 10.3186V12.6573C19.1636 12.6529 19.1308 12.6509 19.0984 12.6469C19.0596 12.6397 19.0208 12.6397 18.9816 12.6337ZM1.11974 4.93546C1.13614 4.94546 1.15453 4.95506 1.17133 4.96505C1.26411 5.02064 1.36169 5.07423 1.46406 5.12502L1.54844 5.16821C1.66602 5.22659 1.78839 5.28338 1.91716 5.33817L1.99714 5.37016C2.10966 5.4168 2.22589 5.46229 2.34586 5.50653C2.37945 5.51893 2.41264 5.53132 2.44664 5.54332C2.5874 5.59371 2.73257 5.6421 2.88214 5.68849C2.91613 5.69929 2.95132 5.70928 2.98611 5.71968C3.11543 5.75862 3.2475 5.79631 3.38242 5.83286C3.41961 5.84285 3.456 5.85325 3.49319 5.86285C3.65316 5.90484 3.81792 5.94523 3.98508 5.98282L4.10745 6.00961C4.25277 6.04216 4.40044 6.0732 4.55055 6.10279L4.66133 6.12519C4.83784 6.15878 5.01699 6.19077 5.1988 6.22117L5.33717 6.24316C5.49713 6.26981 5.6583 6.2941 5.82066 6.31594L5.92424 6.33074C6.11259 6.35634 6.30375 6.37993 6.4957 6.40192L6.64487 6.41832C6.82043 6.43752 6.99679 6.45551 7.17515 6.47151L7.25113 6.47871C7.44948 6.49575 7.64944 6.5111 7.85099 6.5247L8.00256 6.53469C8.19186 6.54669 8.38152 6.55709 8.57163 6.56589L8.62121 6.56829C8.82492 6.57708 9.02887 6.58373 9.23307 6.58828L9.38264 6.59148C9.58859 6.59548 9.79494 6.59828 10.0001 6.59828C10.2052 6.59828 10.4116 6.59548 10.6176 6.59148L10.7671 6.58828C10.9716 6.58348 11.1756 6.57683 11.379 6.56829L11.4286 6.56589C11.6189 6.55709 11.8086 6.54669 11.9976 6.53469L12.1492 6.5247C12.35 6.5111 12.5499 6.49575 12.7491 6.47871L12.825 6.47151C13.0034 6.45551 13.1803 6.43777 13.3557 6.41832L13.5041 6.40192C13.6964 6.37993 13.8876 6.35634 14.076 6.33074L14.1795 6.31594C14.3424 6.293 14.5036 6.26876 14.663 6.24316L14.7966 6.22397C14.9787 6.19357 15.1579 6.16158 15.3341 6.12799L15.4448 6.10559C15.595 6.076 15.7426 6.04496 15.8879 6.01241L16.0103 5.98562C16.1775 5.94563 16.3418 5.90564 16.5022 5.86565C16.5394 5.85605 16.5758 5.84565 16.613 5.83565C16.7481 5.79911 16.8803 5.76142 17.0093 5.72248C17.0441 5.71208 17.0793 5.70209 17.1133 5.69129C17.2628 5.6449 17.408 5.59651 17.5488 5.54612C17.5827 5.53412 17.6159 5.52173 17.6495 5.50933C17.7695 5.46509 17.8857 5.4196 17.9983 5.37296L18.0782 5.34097C18.207 5.28618 18.3294 5.22939 18.4469 5.17101L18.5313 5.12782C18.6337 5.07503 18.7313 5.02144 18.8241 4.96785C18.8409 4.95786 18.8593 4.94826 18.8757 4.93826C18.9788 4.87467 19.0756 4.80949 19.1648 4.74271C19.1744 4.73591 19.186 4.72911 19.1956 4.72191V9.00053C19.1956 10.0003 15.6964 11.4 9.9977 11.4C4.29901 11.4 0.799816 10.0003 0.799816 9.00053V4.71911C0.809414 4.72631 0.821011 4.73311 0.830609 4.74031C0.919788 4.80669 1.01657 4.87228 1.11974 4.93546ZM9.9977 1.00236C15.6964 1.00236 19.1956 2.40004 19.1956 3.40181C19.1956 4.40358 15.6964 5.80126 9.9977 5.80126C4.29901 5.80126 0.799816 4.40358 0.799816 3.40181C0.799816 2.40004 4.29901 1.00236 9.9977 1.00236ZM9.9977 22.5974C4.29901 22.5974 0.799816 21.1997 0.799816 20.198V15.9165C0.809414 15.9237 0.821011 15.9305 0.830609 15.9377C0.920988 16.0041 1.01657 16.0697 1.11974 16.1329C1.13614 16.1429 1.15453 16.1525 1.17133 16.1625C1.26411 16.2181 1.36169 16.2717 1.46406 16.3245L1.54844 16.3676C1.66602 16.426 1.78839 16.4828 1.91716 16.5376L1.99714 16.5696C2.10966 16.6162 2.22589 16.6617 2.34586 16.706C2.37945 16.7184 2.41264 16.7308 2.44664 16.7428C2.5874 16.7931 2.73257 16.8415 2.88214 16.8879C2.91613 16.8987 2.95132 16.9087 2.98611 16.9191C3.11543 16.9578 3.2475 16.9955 3.38242 17.0323C3.41961 17.0423 3.456 17.0527 3.49319 17.0623C3.65316 17.1043 3.81792 17.1447 3.98508 17.1823L4.10745 17.209C4.25277 17.2416 4.40044 17.2726 4.55055 17.3022L4.66133 17.3246C4.83784 17.3582 5.01699 17.3902 5.1988 17.4206L5.33717 17.4426C5.49713 17.4692 5.6583 17.4935 5.82066 17.5154L5.92424 17.5302C6.11259 17.5558 6.30375 17.5794 6.4957 17.6014L6.64487 17.6178C6.82043 17.637 6.99679 17.6549 7.17515 17.6709L7.25113 17.6781C7.44948 17.6955 7.64944 17.7108 7.85099 17.7241L8.00256 17.7341C8.19186 17.7461 8.38152 17.7565 8.57163 17.7653L8.62121 17.7677C8.82492 17.7765 9.02887 17.7832 9.23307 17.7877L9.38264 17.7909C9.58859 17.7949 9.79494 17.7977 10.0001 17.7977C10.5288 17.7977 11.0527 17.7825 11.5713 17.7577C11.7381 17.7497 11.9005 17.7357 12.0656 17.7253C12.3188 17.7097 12.5747 17.6981 12.8254 17.6761C12.8065 17.8503 12.7971 18.0243 12.7971 18.1984C12.7983 18.4116 12.8116 18.6246 12.837 18.8363C12.845 18.9039 12.8582 18.9702 12.8682 19.0362C12.8902 19.179 12.915 19.321 12.9482 19.4605C12.9658 19.5369 12.9882 19.6117 13.0074 19.6865C13.0434 19.8169 13.0838 19.9448 13.1274 20.072C13.1534 20.1456 13.1798 20.2188 13.2074 20.2911C13.2601 20.4215 13.3193 20.5487 13.3817 20.6747C13.4125 20.7366 13.4405 20.7998 13.4733 20.8606C13.5639 21.0283 13.6633 21.1911 13.7708 21.3485C13.7808 21.3637 13.7888 21.3797 13.7992 21.3945C13.9189 21.5654 14.0482 21.7293 14.1863 21.8856C14.2303 21.936 14.2791 21.9824 14.3247 22.0311C14.3967 22.1071 14.4651 22.1859 14.541 22.2583C13.0377 22.4896 11.5187 22.603 9.9977 22.5974ZM18.3958 22.9973C15.7454 22.9973 13.5969 20.8488 13.5969 18.1984C13.5969 15.5481 15.7454 13.3995 18.3958 13.3995C18.5829 13.3995 18.7698 13.4103 18.9556 13.4319C19.1393 13.4534 19.3216 13.4857 19.5015 13.5287C22.0805 14.1395 23.6761 16.7253 23.0653 19.3044C22.5527 21.4688 20.62 22.9972 18.3958 22.9973Z" fill="#231F20"/>
<path d="M21.995 17.7985H18.7957V14.5992C18.7957 14.3784 18.6167 14.1993 18.3958 14.1993C18.175 14.1993 17.9959 14.3784 17.9959 14.5992V17.7985H14.7966C14.5758 17.7985 14.3967 17.9776 14.3967 18.1984C14.3967 18.4193 14.5758 18.5983 14.7966 18.5983H17.9959V21.7976C17.9959 22.0184 18.175 22.1975 18.3958 22.1975C18.6167 22.1975 18.7957 22.0184 18.7957 21.7976V18.5983H21.995C22.2158 18.5983 22.3949 18.4193 22.3949 18.1984C22.3949 17.9776 22.2158 17.7985 21.995 17.7985Z" fill="#231F20"/>
</svg>
