<svg width="24" height="24" viewBox="0 0 24 24" fill="none" xmlns="http://www.w3.org/2000/svg">
<g clip-path="url(#clip0)">
<path d="M15.2495 18.0002C15.2495 19.6541 13.9035 21.0001 12.2495 21.0001H9.49975C9.08467 21.0001 8.71279 20.7441 8.56576 20.3561L1.31593 1.35678C1.19801 1.04973 1.23994 0.704766 1.42597 0.433779C1.61292 0.162791 1.92089 0.000747681 2.24992 0.000747681H12.2495C13.9035 0.000747681 15.2495 1.34671 15.2495 3.00065V18.0002Z" fill="#FBD460"/>
<path d="M9.24961 4.00055V22C9.24961 22.6901 8.68969 23.25 7.99977 23.25C7.8597 23.25 7.7297 23.23 7.5997 23.1899L1.59989 21.1901C1.10991 21.02 0.749939 20.55 0.749939 20.0002V2.00074C0.749939 1.31064 1.30986 0.750717 1.99996 0.750717C2.13985 0.750717 2.26985 0.770675 2.39985 0.810774L8.39966 2.81059C8.88964 2.98069 9.24961 3.4507 9.24961 4.00055V4.00055Z" fill="#503E9D"/>
<path d="M7.36281 23.9009L1.35494 21.898C0.543989 21.618 0 20.8551 0 20.0002V2.00073C0 0.683697 1.28097 -0.317309 2.637 0.0997922L8.64469 2.10272C9.45564 2.38268 9.99963 3.14566 9.99963 4.00055V22C9.99963 23.103 9.1028 24 7.99981 24C7.78577 24 7.58271 23.969 7.36281 23.9009ZM1.49995 2.00073V20.0002C1.49995 20.2131 1.64204 20.411 1.83686 20.4792L7.81982 22.474C8.14483 22.572 8.49967 22.3391 8.49967 22V4.00055C8.49967 3.7876 8.35777 3.58967 8.16277 3.52156L2.17889 1.52779C2.11901 1.50874 2.06298 1.50069 2 1.50069C1.72388 1.50069 1.49995 1.72462 1.49995 2.00073Z" fill="#64B5F6"/>
<path d="M23.2493 11.2504H13.7495C13.3355 11.2504 12.9995 10.9144 12.9995 10.5004C12.9995 10.0864 13.3355 9.75044 13.7495 9.75044H23.2493C23.6632 9.75044 23.9992 10.0864 23.9992 10.5004C23.9992 10.9144 23.6632 11.2504 23.2493 11.2504Z" fill="black"/>
<path d="M19.4994 15.0003C19.3073 15.0003 19.1154 14.9272 18.9693 14.7804C18.6763 14.4872 18.6763 14.0123 18.9693 13.7193L22.1893 10.4995L18.9693 7.2795C18.6763 6.98654 18.6763 6.51158 18.9693 6.21862C19.2624 5.92548 19.7374 5.92548 20.0304 6.21862L23.7802 9.96851C24.0732 10.2615 24.0732 10.7364 23.7802 11.0294L20.0304 14.7793C19.8833 14.9272 19.6914 15.0003 19.4994 15.0003V15.0003Z" fill="black"/>
<path d="M7.99981 24C7.78577 24 7.58271 23.97 7.37983 23.907L1.3619 21.902C0.543074 21.616 0 20.8531 0 20.0002V2.00075C0 0.897753 0.897006 0.000747681 2 0.000747681C2.21386 0.000747681 2.41692 0.0307761 2.61997 0.0937624L8.63773 2.0987C9.45674 2.38471 9.99963 3.14768 9.99963 4.00056V22C9.99963 23.103 9.1028 24 7.99981 24ZM2 1.5007C1.72498 1.5007 1.49995 1.72573 1.49995 2.00075V20.0002C1.49995 20.2131 1.64295 20.4111 1.84693 20.4821L7.83667 22.4781C7.8797 22.492 7.93573 22.5 7.99981 22.5C8.27483 22.5 8.49967 22.275 8.49967 22V4.00056C8.49967 3.78762 8.35667 3.58969 8.1527 3.51864L2.16296 1.52267C2.11993 1.50876 2.0639 1.5007 2 1.5007V1.5007Z" fill="black"/>
<path d="M15.2495 8.00056C14.8355 8.00056 14.4995 7.66457 14.4995 7.25058V2.75072C14.4995 2.06172 13.9387 1.5007 13.2497 1.5007H2.00004C1.58605 1.5007 1.25006 1.16471 1.25006 0.750724C1.25006 0.336736 1.58605 0.000747681 2.00004 0.000747681H13.2497C14.7667 0.000747681 15.9995 1.23374 15.9995 2.75072V7.25058C15.9995 7.66457 15.6635 8.00056 15.2495 8.00056Z" fill="black"/>
<path d="M13.2497 21.0001H9.24967C8.83568 21.0001 8.49969 20.6641 8.49969 20.2501C8.49969 19.8361 8.83568 19.5001 9.24967 19.5001H13.2497C13.9387 19.5001 14.4995 18.9391 14.4995 18.2501V13.7502C14.4995 13.3363 14.8355 13.0003 15.2495 13.0003C15.6635 13.0003 15.9995 13.3363 15.9995 13.7502V18.2501C15.9995 19.7671 14.7666 21.0001 13.2497 21.0001V21.0001Z" fill="black"/>
</g>
<defs>
<clipPath id="clip0">
<rect width="24" height="24" fill="white"/>
</clipPath>
</defs>
</svg>
