<svg width="24" height="24" viewBox="0 0 24 24" fill="none" xmlns="http://www.w3.org/2000/svg">
<path d="M10.524 14.0372C10.5472 14.0668 10.5696 14.0972 10.592 14.128C10.5696 14.0972 10.5472 14.0668 10.524 14.0372Z" fill="#78B9EB"/>
<path d="M10.2776 13.7528C10.294 13.7696 10.3084 13.7876 10.3244 13.8048C10.3084 13.7876 10.294 13.7696 10.2776 13.7528Z" fill="#78B9EB"/>
<path d="M10.7532 14.3744C10.7676 14.3988 10.7837 14.4224 10.7976 14.4472C10.7836 14.4224 10.7676 14.4 10.7532 14.3744Z" fill="#78B9EB"/>
<path d="M10.96 14.7852C10.9707 14.812 10.9796 14.84 10.99 14.8652C10.9796 14.84 10.9708 14.812 10.96 14.7852Z" fill="#78B9EB"/>
<path d="M9.92523 13.4476C9.95045 13.4668 9.97684 13.4852 10.0016 13.5048C9.97679 13.4848 9.9504 13.4668 9.92523 13.4476Z" fill="#78B9EB"/>
<path d="M9.5932 13.2272C9.62559 13.2456 9.65718 13.2672 9.6892 13.2852C9.65718 13.2656 9.62559 13.246 9.5932 13.2272Z" fill="#78B9EB"/>
<path d="M9.80603 18.64C10.0424 18.4912 10.264 18.3208 10.4684 18.1304C10.5248 18.0772 10.5744 18.0164 10.6152 17.9504C10.8344 17.5968 10.9964 17.2108 11.0952 16.8068C10.9004 17.5532 10.4428 18.2044 9.80603 18.64Z" fill="#78B9EB"/>
<path d="M8.39636 12.8272C8.43438 12.8316 8.47155 12.8384 8.50877 12.8444C8.47155 12.84 8.43438 12.8316 8.39636 12.8272Z" fill="#78B9EB"/>
<path d="M9.25562 13.056C9.26963 13.062 9.28243 13.0696 9.2956 13.0756C9.28243 13.0696 9.26958 13.062 9.25562 13.056Z" fill="#78B9EB"/>
<path d="M11.0828 15.1516C11.0932 15.1892 11.1028 15.2268 11.112 15.2648C11.1028 15.2268 11.0932 15.1892 11.0828 15.1516Z" fill="#78B9EB"/>
<path d="M7.98521 19.2C7.89441 19.2 7.80601 19.1908 7.71722 19.1828C7.80601 19.19 7.89441 19.2 7.98521 19.2Z" fill="#78B9EB"/>
<path d="M8.80966 19.0928L8.76166 19.1052L8.80966 19.0928Z" fill="#78B9EB"/>
<path d="M11.1696 15.5812C11.1728 15.6048 11.1776 15.6276 11.1804 15.6512C11.1776 15.6276 11.1728 15.6048 11.1696 15.5812Z" fill="#78B9EB"/>
<path d="M7.58523 19.1728C7.45562 19.1556 7.32681 19.1316 7.20001 19.1C7.32681 19.1316 7.45562 19.1556 7.58523 19.1728Z" fill="#78B9EB"/>
<path d="M8.41362 19.1704C8.3952 19.1728 8.37804 19.1764 8.35962 19.1784C8.37762 19.1764 8.39562 19.1728 8.41362 19.1704Z" fill="#78B9EB"/>
<path d="M9.75401 18.6752C9.6972 18.7124 9.63879 18.7472 9.57959 18.7812C9.64001 18.7492 9.69603 18.7112 9.75401 18.6752Z" fill="#78B9EB"/>
<path d="M11.1976 16.0476C11.1976 16.0824 11.194 16.1164 11.1924 16.1508C11.194 16.1164 11.1972 16.08 11.1976 16.0476Z" fill="#78B9EB"/>
<path d="M11.164 16.4556C11.1572 16.5028 11.1512 16.5504 11.1424 16.5968C11.1508 16.5496 11.1576 16.5028 11.164 16.4556Z" fill="#78B9EB"/>
<path d="M8.79523 12.9036C8.82963 12.9124 8.86441 12.92 8.89845 12.93C8.86441 12.92 8.82963 12.9124 8.79523 12.9036Z" fill="#78B9EB"/>
<path d="M1.20004 17.6H1.64006C1.97165 17.6 2.26804 17.8056 2.38485 18.116C2.43046 18.236 2.47963 18.354 2.53246 18.47C2.67088 18.7724 2.60727 19.1288 2.37248 19.3644L2.06006 19.68C1.74848 19.9925 1.74848 20.4981 2.06006 20.8104L3.19045 21.9408C3.50287 22.2524 4.00846 22.2524 4.32084 21.9408L4.63485 21.628C4.87045 21.3932 5.22684 21.3296 5.52927 21.468C5.64529 21.5212 5.76327 21.5705 5.88327 21.6157C6.19368 21.732 6.3997 22.0284 6.40007 22.3601V22.8001C6.40007 23.2421 6.75806 23.6001 7.20009 23.6001H8.80007C9.24206 23.6001 9.60009 23.2421 9.60009 22.8001V22.3601C9.60009 22.0285 9.80568 21.7321 10.1161 21.6153C10.2361 21.5697 10.3541 21.5205 10.4701 21.4677C10.7725 21.3292 11.1289 21.3929 11.3645 21.6277L11.6785 21.9405C11.9909 22.252 12.4965 22.252 12.8089 21.9405L13.9393 20.8101C14.2509 20.4976 14.2509 19.992 13.9393 19.6797L13.6265 19.3657C13.3917 19.1301 13.3281 18.7737 13.4665 18.4712C13.5197 18.3552 13.5689 18.2372 13.6141 18.1172C13.7305 17.806 14.0278 17.6 14.3601 17.6H14.8002C15.2421 17.6 15.6002 17.242 15.6002 16.8V15.2C15.6002 14.758 15.2422 14.4 14.8002 14.4H14.3601C14.0286 14.4 13.7322 14.1944 13.6154 13.884C13.5697 13.764 13.5206 13.646 13.4677 13.53C13.3289 13.2276 13.3929 12.8712 13.6277 12.6356L13.9405 12.3216C14.2521 12.0091 14.2521 11.5035 13.9405 11.1912L12.81 10.0608C12.4976 9.7492 11.992 9.7492 11.6796 10.0608L11.3656 10.3736C11.13 10.6084 10.7736 10.672 10.4712 10.5336C10.3552 10.4804 10.2372 10.4311 10.1172 10.386C9.80601 10.2696 9.59999 9.97237 9.59999 9.63994V9.19992C9.59999 8.75794 9.24201 8.39991 8.79998 8.39991H7.20004C6.75806 8.39991 6.40002 8.75789 6.40002 9.19992V9.63994C6.40002 9.97153 6.19443 10.2679 5.88402 10.3847C5.76402 10.4303 5.64604 10.4795 5.53002 10.5323C5.22763 10.6708 4.87124 10.6072 4.6356 10.3724L4.31999 10.0599C4.00757 9.74836 3.50198 9.74836 3.1896 10.0599L2.06081 11.1911C1.74923 11.5035 1.74923 12.0091 2.06081 12.3215L2.3736 12.6355C2.6084 12.8711 2.67238 13.2275 2.53359 13.53C2.48038 13.646 2.43117 13.764 2.38598 13.884C2.26917 14.1947 1.97198 14.4004 1.63996 14.4H1.20004C0.758056 14.4 0.400024 14.7579 0.400024 15.2V16.8C0.400024 17.242 0.758056 17.6 1.20004 17.6ZM7.20004 12.9C7.46165 12.834 7.73043 12.8004 8.00006 12.8C8.13248 12.8008 8.26485 12.81 8.39648 12.8272C8.43449 12.8316 8.47166 12.8384 8.50888 12.8444C8.6061 12.8596 8.70131 12.8796 8.79529 12.9036C8.8297 12.9124 8.86448 12.92 8.89851 12.93C9.0201 12.9648 9.13931 13.0068 9.2557 13.056C9.26971 13.062 9.28251 13.0696 9.29568 13.0756C9.39726 13.1208 9.49649 13.1716 9.59287 13.2272C9.62526 13.246 9.65685 13.2672 9.68887 13.2852C9.76888 13.336 9.84885 13.3904 9.92488 13.4476C9.9501 13.4668 9.97649 13.4848 10.0013 13.5048C10.0977 13.5824 10.1901 13.6652 10.2773 13.7528C10.2937 13.7696 10.3081 13.7876 10.3241 13.8048C10.3945 13.8788 10.4613 13.9564 10.5241 14.0372C10.5473 14.0668 10.5697 14.0972 10.5921 14.128C10.6493 14.208 10.7033 14.288 10.7521 14.3744C10.7665 14.3988 10.7825 14.4224 10.7965 14.4472C10.8573 14.5564 10.9113 14.6696 10.9589 14.7852C10.9697 14.812 10.9785 14.8396 10.9889 14.8652C11.0241 14.9584 11.0553 15.0532 11.0817 15.15C11.0921 15.1876 11.1017 15.2252 11.1109 15.2632C11.1353 15.3676 11.1545 15.4732 11.1685 15.5797C11.1717 15.6032 11.1765 15.6261 11.1793 15.6496C11.1925 15.766 11.1997 15.8828 11.2001 16C11.2001 16.016 11.2001 16.0316 11.1977 16.0476C11.1977 16.0816 11.1941 16.1164 11.1925 16.1508C11.1877 16.2536 11.1785 16.3553 11.1641 16.4556C11.1577 16.5028 11.1509 16.5496 11.1425 16.5968C11.1289 16.6684 11.1113 16.738 11.0933 16.808C10.9945 17.212 10.8325 17.598 10.6133 17.9516C10.5725 18.0176 10.5229 18.0784 10.4665 18.1316C10.2629 18.3212 10.0417 18.4916 9.80606 18.64L9.75407 18.674C9.69609 18.71 9.63806 18.748 9.57965 18.78C9.33763 18.9172 9.07884 19.0216 8.80963 19.0916L8.76163 19.104C8.64684 19.132 8.53082 19.154 8.41363 19.1692C8.39563 19.1716 8.37763 19.1752 8.35963 19.1772C8.24043 19.1916 8.12006 19.1992 8.00006 19.2H7.98524C7.89445 19.2 7.80604 19.1908 7.71726 19.1828C7.67366 19.1788 7.62848 19.1792 7.58526 19.1736C7.45565 19.1564 7.32684 19.1316 7.20004 19.1C5.48802 18.6572 4.45884 16.9104 4.90162 15.1984C5.19323 14.0712 6.07326 13.1916 7.20004 12.9Z" fill="#503E9D"/>
<path d="M10.7976 14.4472C10.8584 14.5564 10.9124 14.6696 10.96 14.7852C10.9124 14.6696 10.8584 14.5564 10.7976 14.4472Z" fill="#78B9EB"/>
<path d="M10.99 14.8668C11.0252 14.96 11.0564 15.0548 11.0828 15.1516C11.0564 15.0548 11.0252 14.96 10.99 14.8668Z" fill="#78B9EB"/>
<path d="M11.2 16C11.1995 15.8836 11.1932 15.7672 11.1804 15.6512C11.1944 15.7828 11.2 15.9152 11.1976 16.0476C11.2 16.0316 11.2 16.016 11.2 16Z" fill="#78B9EB"/>
<path d="M11.1119 15.2648C11.1364 15.3692 11.1555 15.4748 11.1695 15.5812C11.1555 15.4748 11.1364 15.3692 11.1119 15.2648Z" fill="#78B9EB"/>
<path d="M8.50879 12.8444C8.60601 12.8596 8.70121 12.8796 8.7952 12.9036C8.70121 12.88 8.60601 12.8596 8.50879 12.8444Z" fill="#78B9EB"/>
<path d="M8 12.8C8.13242 12.8008 8.2648 12.81 8.39642 12.8272C8.2648 12.81 8.13238 12.8008 8 12.8Z" fill="#78B9EB"/>
<path d="M9.29602 13.0756C9.3976 13.1208 9.49683 13.1712 9.59321 13.2272C9.49679 13.1716 9.3976 13.1208 9.29602 13.0756Z" fill="#78B9EB"/>
<path d="M8.89838 12.93C9.01997 12.9648 9.13917 13.0068 9.25556 13.056C9.13917 13.0068 9.01997 12.9648 8.89838 12.93Z" fill="#78B9EB"/>
<path d="M10.592 14.128C10.6492 14.208 10.7032 14.288 10.752 14.3744C10.7032 14.2896 10.6492 14.2072 10.592 14.128Z" fill="#78B9EB"/>
<path d="M10.3243 13.8048C10.3943 13.8788 10.4611 13.9564 10.5244 14.0372C10.4615 13.9564 10.3947 13.8788 10.3243 13.8048Z" fill="#78B9EB"/>
<path d="M9.68921 13.2852C9.76922 13.336 9.84919 13.3904 9.92522 13.4476C9.84882 13.3904 9.7704 13.336 9.68921 13.2852Z" fill="#78B9EB"/>
<path d="M9.99994 13.5048C10.0967 13.582 10.1888 13.6648 10.2759 13.7528C10.1888 13.6652 10.0964 13.5824 9.99994 13.5048Z" fill="#78B9EB"/>
<path d="M9.57959 18.7812C9.3364 18.916 9.07798 19.0204 8.80957 19.0928C9.07877 19.0228 9.33757 18.9184 9.57959 18.7812Z" fill="#78B9EB"/>
<path d="M8.75999 19.1052C8.64519 19.1332 8.52917 19.1552 8.41199 19.1704C8.52917 19.1552 8.64519 19.1332 8.75999 19.1052Z" fill="#78B9EB"/>
<path d="M7.99999 19.2C8.12041 19.1996 8.24041 19.1924 8.35999 19.1784C8.23558 19.1928 8.1108 19.1996 7.9856 19.1992L7.99999 19.2Z" fill="#78B9EB"/>
<path d="M7.71721 19.182C7.67361 19.178 7.62842 19.1784 7.58521 19.1728C7.62838 19.1784 7.67356 19.178 7.71721 19.182Z" fill="#78B9EB"/>
<path d="M11.1924 16.1508C11.188 16.2516 11.178 16.3532 11.164 16.4556C11.1784 16.3552 11.1876 16.2536 11.1924 16.1508Z" fill="#78B9EB"/>
<path d="M9.80601 18.64C9.78881 18.6512 9.77161 18.6632 9.75403 18.674L9.80601 18.64Z" fill="#78B9EB"/>
<path d="M11.1424 16.5968C11.1296 16.6668 11.1103 16.7376 11.0931 16.808C11.1111 16.738 11.1287 16.6684 11.1424 16.5968Z" fill="#78B9EB"/>
<path d="M14.8 14H14.36C14.1944 14.0004 14.0464 13.8972 13.9896 13.7416C13.9408 13.6136 13.8884 13.4884 13.832 13.3644C13.762 13.2136 13.794 13.0352 13.912 12.918L14.2256 12.604C14.6912 12.1344 14.6904 11.3768 14.2236 10.9084L13.0932 9.77799C12.624 9.31158 11.8664 9.31158 11.3972 9.77799L11.0836 10.0912C10.9664 10.2088 10.788 10.2408 10.6372 10.1712C10.5132 10.1148 10.388 10.0624 10.2596 10.0112C10.1032 9.95485 9.99961 9.80602 10 9.64003V9.20002C10 8.5372 9.46284 8.00002 8.80003 8.00002H7.2C6.53719 8.00002 6 8.5372 6 9.20002V9.64003C6.00042 9.80564 5.8972 9.95363 5.74158 10.0104C5.61356 10.0592 5.48836 10.1116 5.36438 10.168C5.21358 10.2376 5.03517 10.2056 4.91798 10.088L4.60397 9.77442C4.13475 9.30844 3.37758 9.30844 2.90836 9.77442L1.77797 10.9084C1.31156 11.3776 1.31156 12.1352 1.77797 12.6044L2.09119 12.918C2.20917 13.0352 2.24119 13.2136 2.1712 13.3644C2.11481 13.4884 2.06241 13.6136 2.01319 13.742C1.956 13.8984 1.80638 14.0016 1.63997 14H1.2C0.537188 14 0 14.5372 0 15.2V16.8C0 17.4628 0.537188 18 1.2 18H1.64002C1.80562 17.9996 1.95361 18.1028 2.01042 18.2584C2.05922 18.3864 2.11162 18.5116 2.16802 18.6356C2.238 18.7864 2.20603 18.9648 2.088 19.082L1.77441 19.396C1.30842 19.8653 1.30842 20.6224 1.77441 21.0917L2.9048 22.222C3.37402 22.6885 4.13161 22.6885 4.60078 22.222L4.91437 21.9088C5.03156 21.7912 5.20997 21.7592 5.36077 21.8288C5.48475 21.8852 5.60995 21.9376 5.73834 21.9888C5.89556 22.0444 6.00033 22.1932 5.99995 22.36V22.8C5.99995 23.4628 6.53714 24 7.19995 24H8.79994C9.46275 24 9.99994 23.4628 9.99994 22.8V22.36C9.99952 22.1944 10.1027 22.0464 10.2584 21.9896C10.3864 21.9408 10.5116 21.8884 10.6356 21.832C10.7864 21.7624 10.9648 21.7944 11.082 21.912L11.396 22.2256C11.8656 22.6908 12.6228 22.69 13.0916 22.2236L14.222 21.0932C14.6884 20.624 14.6884 19.8664 14.222 19.3972L13.9088 19.0836C13.7908 18.9664 13.7588 18.788 13.8287 18.6372C13.8851 18.5132 13.9375 18.388 13.9887 18.2596C14.0451 18.1032 14.1939 17.9996 14.3599 18.0001H14.7999C15.4627 18.0001 15.9999 17.4629 15.9999 16.8001V15.2001C16 14.5372 15.4628 14 14.8 14ZM15.2 16.8C15.2 17.0208 15.0208 17.2 14.8 17.2H14.36C13.8628 17.202 13.4176 17.5092 13.24 17.9736C13.1976 18.0856 13.1516 18.196 13.1025 18.3044C12.8969 18.7584 12.9921 19.292 13.3425 19.6468L13.6553 19.96C13.8117 20.116 13.8117 20.3692 13.6557 20.5256L13.6553 20.526L12.5249 21.6564C12.3689 21.8124 12.1156 21.8124 11.9593 21.6564L11.6457 21.3432C11.2912 20.9928 10.7572 20.8972 10.3033 21.1032C10.1948 21.1524 10.0845 21.1984 9.97327 21.2408C9.50925 21.4184 9.20208 21.8632 9.20006 22.3599V22.8C9.20006 23.0207 9.02086 23.2 8.80008 23.2H7.2C6.97922 23.2 6.80002 23.0207 6.80002 22.8V22.3599C6.798 21.8627 6.49083 21.4175 6.02644 21.24C5.91445 21.1975 5.80402 21.1516 5.69564 21.1024C5.24166 20.8968 4.70803 20.9924 4.35323 21.3424L4.04002 21.6552C3.88402 21.8116 3.6308 21.8116 3.47442 21.6556L3.474 21.6552L2.34361 20.526C2.18761 20.37 2.18761 20.1164 2.34361 19.9604L2.65683 19.6468C3.00722 19.292 3.10242 18.7584 2.89683 18.3044C2.84761 18.1959 2.80162 18.0856 2.75925 17.9744C2.58206 17.51 2.13727 17.202 1.64006 17.1999H1.2C0.979219 17.1999 0.800016 17.0207 0.800016 16.8V15.2C0.800016 14.9792 0.979219 14.8 1.2 14.8H1.64002C2.13722 14.798 2.58244 14.4908 2.76 14.0264C2.80242 13.9144 2.84841 13.804 2.89758 13.6956C3.10317 13.2416 3.00797 12.708 2.65758 12.3532L2.34319 12.04C2.18677 11.884 2.18677 11.6308 2.34277 11.4744L2.34319 11.474L3.47358 10.3436C3.63 10.1876 3.8828 10.1876 4.03917 10.3436L4.35277 10.6568C4.70719 11.0072 5.24119 11.1028 5.69517 10.8968C5.80359 10.8476 5.91398 10.8016 6.02517 10.7592C6.48998 10.582 6.79758 10.1372 6.79997 9.64003V9.20002C6.79997 8.97924 6.97917 8.80003 7.19995 8.80003H8.79994C9.02072 8.80003 9.19992 8.97924 9.19992 9.20002V9.64003C9.20194 10.1372 9.50911 10.5825 9.9735 10.76C10.0855 10.8024 10.1959 10.8484 10.3043 10.8976C10.7583 11.1036 11.2923 11.008 11.6467 10.6576L11.9599 10.3448C12.1167 10.1896 12.3691 10.1896 12.5259 10.3448L13.6563 11.4752C13.8123 11.6312 13.8123 11.8848 13.6563 12.0408L13.3431 12.3544C12.9927 12.7092 12.8975 13.2428 13.1031 13.6968C13.1523 13.8052 13.1983 13.9156 13.2407 14.0268C13.4183 14.4908 13.8631 14.798 14.3599 14.8H14.7999C15.0207 14.8 15.1999 14.9792 15.1999 15.2V16.8H15.2Z" fill="#231F20"/>
<path d="M11.592 15.84C11.588 15.744 11.5812 15.6484 11.5696 15.5532C11.5568 15.4508 11.5416 15.3492 11.5203 15.2496C11.5063 15.1844 11.4879 15.12 11.4703 15.0552C11.4479 14.9728 11.4227 14.8916 11.3947 14.8116C11.3751 14.756 11.3547 14.7008 11.3339 14.646C11.2823 14.518 11.2235 14.3928 11.1575 14.2716C11.1523 14.2624 11.1491 14.2524 11.1439 14.2432C11.0399 14.058 10.9195 13.8824 10.7839 13.7188C10.7724 13.7044 10.7591 13.6908 10.7471 13.6768C10.6919 13.6116 10.6352 13.5484 10.5755 13.488C10.5443 13.4556 10.5115 13.4252 10.4787 13.394C10.4387 13.3568 10.3987 13.32 10.3587 13.2848C10.3103 13.2428 10.2607 13.202 10.2103 13.1624L10.1447 13.1136C9.52595 12.65 8.77314 12.3996 7.99993 12.4C7.95995 12.4 7.91992 12.406 7.87993 12.4076C7.79471 12.41 7.70912 12.4148 7.62315 12.4236C7.57796 12.4284 7.53235 12.4336 7.48717 12.44C7.35676 12.4572 7.22757 12.4812 7.09956 12.5124C5.17356 13.01 4.01556 14.9748 4.51314 16.9013C4.84112 18.1704 5.83271 19.1612 7.10232 19.4881C7.10874 19.4881 7.11554 19.4901 7.12234 19.4917C7.26034 19.5261 7.40035 19.5529 7.54154 19.5717C7.63473 19.5833 7.72796 19.5857 7.82153 19.5901C7.88392 19.5933 7.94153 19.6025 8.00673 19.6025C8.12073 19.6025 8.23914 19.5949 8.35993 19.5829C8.37273 19.5829 8.38553 19.5793 8.39992 19.5777C8.49714 19.567 8.59553 19.5525 8.69593 19.5325C8.73592 19.525 8.77314 19.515 8.81153 19.5062C8.88193 19.4897 8.95192 19.4725 9.02392 19.4514C9.07993 19.4346 9.13431 19.4149 9.1891 19.3958C9.2439 19.3765 9.30071 19.3558 9.35753 19.3342C9.41434 19.3126 9.46192 19.2878 9.51353 19.2638C9.58074 19.233 9.64754 19.2025 9.71354 19.1665H9.71593C10.0892 18.9665 10.4339 18.7178 10.7411 18.4262C10.8239 18.3486 10.8963 18.2605 10.9555 18.1637C11.268 17.6634 11.4728 17.1033 11.5579 16.5197C11.5691 16.4425 11.5791 16.3653 11.5851 16.2865C11.5907 16.2141 11.5947 16.1421 11.5963 16.0701C11.5963 16.0473 11.5995 16.0257 11.5995 16.0029C11.6 15.9464 11.5944 15.8944 11.592 15.84ZM7.29718 13.288C7.52678 13.23 7.76317 13.2004 7.99998 13.2C8.1144 13.2008 8.2284 13.2084 8.34198 13.2232C8.3724 13.2268 8.4024 13.2324 8.4324 13.2368C8.51879 13.2504 8.60439 13.2676 8.68881 13.2892C8.71642 13.2964 8.74403 13.3028 8.77121 13.3104C8.98403 13.3716 9.18882 13.458 9.3812 13.5672C9.41199 13.5852 9.44199 13.604 9.47242 13.6228C9.5356 13.6628 9.59682 13.7028 9.6572 13.7483C9.68959 13.7719 9.7224 13.7951 9.75362 13.8203C9.83204 13.8832 9.90723 13.95 9.97881 14.0204C10.0072 14.0491 10.0332 14.0808 10.0608 14.1108C10.1068 14.1608 10.1516 14.212 10.1944 14.266C10.224 14.3032 10.2524 14.3416 10.2804 14.3804C10.3204 14.438 10.3604 14.498 10.3964 14.5588C10.4164 14.592 10.4364 14.6244 10.4568 14.6584C10.5084 14.7532 10.5544 14.8512 10.5944 14.9516C10.6104 14.9916 10.624 15.0316 10.6384 15.0716C10.6644 15.1452 10.6869 15.2196 10.7064 15.2949C10.7164 15.3348 10.7276 15.3705 10.736 15.4093C10.7592 15.5173 10.7764 15.6269 10.7868 15.7369C10.7892 15.7661 10.7892 15.7957 10.7912 15.8249C10.7968 15.9169 10.7985 16.0093 10.7949 16.1021C10.7949 16.1353 10.792 16.1685 10.7901 16.2013C10.7829 16.2981 10.7705 16.3949 10.7541 16.4921C10.6045 17.3237 10.0881 18.0437 9.34848 18.4521C9.29889 18.4781 9.25009 18.5025 9.20129 18.5249L9.1681 18.5409C8.9357 18.6465 8.6905 18.7204 8.4385 18.7616C8.42092 18.7645 8.40292 18.7676 8.38492 18.77C8.3349 18.7772 8.28573 18.7832 8.23693 18.7876C8.17253 18.7932 8.10774 18.7964 8.04174 18.7976C8.01376 18.7976 7.98615 18.7976 7.95817 18.7976C7.86339 18.7964 7.76898 18.7908 7.67495 18.78L7.62695 18.7744C7.51693 18.76 7.40776 18.7397 7.30014 18.7128C5.80215 18.3293 4.89854 16.804 5.28174 15.3061C5.53496 14.3161 6.3076 13.5424 7.29718 13.288Z" fill="#231F20"/>
<path d="M22.8 8.4H21.542C21.3744 8.40159 21.224 8.29598 21.1692 8.13759C21.0452 7.76602 20.8952 7.40358 20.72 7.05319C20.6456 6.90197 20.6768 6.72 20.7968 6.60159L21.6888 5.70839C22.1568 5.23997 22.1568 4.48041 21.6888 4.01198L19.988 2.31398C19.5196 1.84598 18.76 1.84598 18.2916 2.31398L17.4 3.20522C17.282 3.32522 17.1 3.35644 16.9488 3.28242C16.5984 3.10641 16.236 2.95561 15.864 2.83083C15.7048 2.77641 15.5984 2.62603 15.6 2.45803V1.2C15.6 0.537188 15.0628 0 14.4 0H12C11.3372 0 10.8 0.537188 10.8 1.2V2.45798C10.8016 2.62556 10.696 2.77598 10.5376 2.83078C10.166 2.95556 9.80359 3.10636 9.4532 3.282C9.30198 3.35639 9.11959 3.32559 9.0016 3.20522L8.1084 2.31323C7.63918 1.84645 6.88121 1.84645 6.41199 2.31323L4.71441 4.01081C4.24599 4.47923 4.24599 5.23922 4.71441 5.70759L6.02602 7.02159C6.18484 7.1752 6.43801 7.17117 6.59162 7.01278C6.74162 6.858 6.74204 6.61237 6.59241 6.4568L5.28001 5.14322C5.12401 4.9868 5.12401 4.734 5.28001 4.57762L6.97759 2.88005C7.13359 2.72405 7.38718 2.72405 7.54318 2.88005L8.43676 3.77203C8.79835 4.13564 9.35237 4.22681 9.81118 3.99764C10.128 3.83883 10.4556 3.70284 10.7916 3.59006C11.2764 3.42605 11.602 2.97005 11.6 2.45808V1.2C11.6 0.979219 11.7792 0.800016 12 0.800016H14.4C14.6207 0.800016 14.7999 0.979219 14.7999 1.2V2.45798C14.7979 2.97 15.1235 3.42558 15.6084 3.58959C15.9444 3.70238 16.2723 3.83878 16.5892 3.99759C17.048 4.22559 17.6011 4.13437 17.9632 3.77161L18.8567 2.88C19.0127 2.724 19.2663 2.724 19.4223 2.88L21.1199 4.578C21.2759 4.734 21.2759 4.98722 21.1199 5.14322L20.2279 6.0368C19.8647 6.39839 19.7735 6.95241 20.0023 7.41122C20.1611 7.728 20.2971 8.05561 20.4099 8.39161C20.5739 8.87639 21.0299 9.20241 21.5419 9.20002H22.8C23.0208 9.20002 23.2 9.37922 23.2 9.6V12C23.2 12.2208 23.0208 12.4 22.8 12.4H21.542C21.03 12.398 20.5744 12.7236 20.4104 13.2084C20.2976 13.5444 20.1612 13.8724 20.0024 14.1892C19.774 14.648 19.8652 15.2016 20.2284 15.5632L21.1204 16.4568C21.2764 16.6128 21.2764 16.8664 21.1204 17.0224L19.422 18.72C19.266 18.876 19.0127 18.876 18.8567 18.72L17.5423 17.4083C17.3887 17.2495 17.1355 17.2455 16.9767 17.3992C16.8179 17.5528 16.8139 17.8059 16.9675 17.9647C16.9707 17.9679 16.974 17.9712 16.9775 17.9744L18.2915 19.286C18.7599 19.754 19.5195 19.754 19.9879 19.286L21.6855 17.5888C22.1539 17.12 22.1539 16.3608 21.6855 15.892L20.7948 15C20.6748 14.882 20.6436 14.7 20.7176 14.5488C20.8936 14.1984 21.0444 13.836 21.1692 13.464C21.2236 13.3048 21.374 13.1984 21.542 13.2H22.8C23.4628 13.2 24 12.6628 24 12V9.6C24 8.93719 23.4628 8.4 22.8 8.4Z" fill="#FBD460"/>
<path d="M16.8768 7.12322C14.8448 5.09564 11.5552 5.09564 9.5232 7.12322C9.36959 7.28203 9.37399 7.5352 9.53318 7.68881C9.68838 7.83839 9.93396 7.83839 10.0888 7.68881C11.7956 5.95922 14.5816 5.94042 16.3112 7.64723C18.0409 9.35404 18.0596 12.14 16.3528 13.8696C16.3388 13.8837 16.3252 13.8976 16.3112 13.9112C16.1524 14.0648 16.148 14.318 16.3016 14.4768C16.4552 14.6356 16.7084 14.64 16.8672 14.4864C16.8704 14.4832 16.8736 14.48 16.8768 14.4768C18.9044 12.4448 18.9044 9.1552 16.8768 7.12322Z" fill="#FBD460"/>
</svg>
